<?xml version="1.0" encoding="UTF-8" standalone="no"?>
<!DOCTYPE svg PUBLIC "-//W3C//DTD SVG 1.1//EN" "http://www.w3.org/Graphics/SVG/1.1/DTD/svg11.dtd">
<svg width="100%" height="100%" viewBox="0 0 225 225" version="1.1" xmlns="http://www.w3.org/2000/svg" xmlns:xlink="http://www.w3.org/1999/xlink" xml:space="preserve" xmlns:serif="http://www.serif.com/" style="fill-rule:evenodd;clip-rule:evenodd;stroke-linejoin:round;stroke-miterlimit:2;">
    <path d="M144.5,116.715C146.2,116.715 153.6,117.315 161,118.115C168.4,118.915 177.2,120.315 180.5,121.115C183.8,122.015 189.7,124.015 193.5,125.615C197.3,127.315 202.2,130.015 204.4,131.815C206.5,133.615 209.3,137.415 210.6,140.115C212,142.915 213.3,147.815 213.6,151.115C214,155.215 213.7,159.215 212.5,163.615C211.6,167.215 209.6,172.615 208.2,175.615C206.7,178.615 203.2,183.515 200.4,186.615C197.6,189.615 192.8,193.415 189.7,195.115C184.3,198.015 183.9,198.115 179.3,196.815C176.7,196.115 172.1,193.715 169.2,191.515C166.4,189.415 161.7,184.815 158.8,181.415C156,177.915 151,171.015 147.7,166.115C144.5,161.215 139.2,151.715 136,145.115C132.7,138.515 129.4,130.715 128.4,127.715C127.3,124.115 127.1,121.815 127.7,120.715C128.3,119.715 131.2,118.615 135.1,118.015C138.6,117.315 142.8,116.815 144.5,116.715Z" style="fill:rgb(158,158,158);fill-rule:nonzero;"/>
    <path d="M43,26.915C44.9,27.115 48.3,28.215 50.5,29.215C52.7,30.215 57.2,33.815 60.6,37.115C63.9,40.415 68.6,45.815 71,49.115C73.4,52.415 78.1,59.615 81.4,65.115C84.6,70.615 89.1,78.915 91.2,83.615C93.4,88.315 95.9,94.415 96.7,97.115C97.8,100.615 98,102.615 97.3,103.615C96.7,104.415 93.3,105.615 89.4,106.315C84.3,107.215 79,107.215 69,106.515C61.5,105.915 51.1,104.415 45.5,103.015C40,101.715 32.4,99.115 28.6,97.315C24,95.215 20.4,92.615 17.8,89.615C15.6,87.015 13.3,83.015 12.4,80.115C11.6,77.315 11,72.815 11,70.115C11,67.315 11.7,62.615 12.5,59.615C13.3,56.615 15.2,51.715 16.7,48.715C18.3,45.715 21.7,40.815 24.5,37.815C27.2,34.815 31.7,31.015 34.5,29.415C38.2,27.315 40.4,26.615 43,26.915Z" style="fill:rgb(158,158,158);fill-rule:nonzero;"/>
    <path d="M126,0.015C130.7,0.215 136.8,1.115 139.5,1.915C142.3,2.815 146.4,4.815 148.7,6.315C151.1,7.815 153.5,10.415 154.2,12.115C154.8,13.815 155.3,17.815 155.2,21.115C155.2,24.815 154.1,30.015 152.4,34.615C151,38.715 147.9,45.715 145.7,50.115C143.5,54.515 139.9,61.015 137.7,64.615C135.4,68.215 131.2,74.515 128.2,78.615C125.2,82.715 120.7,88.215 118.1,90.915C115.6,93.515 113,95.615 112.5,95.615C112,95.615 110.1,94.215 108.4,92.415C106.7,90.615 103.8,86.815 101.9,84.115C100.1,81.315 96.7,75.115 94.4,70.115C92,65.115 89,57.715 87.6,53.615C86.3,49.515 84.6,42.315 83.9,37.615C82.9,30.315 82.9,28.315 84.3,23.615C85.4,19.715 87.2,16.615 90.7,12.915C93.8,9.615 97.7,6.715 101.5,5.015C104.8,3.515 109.7,1.715 112.5,1.015C115.3,0.315 121.2,-0.085 126,0.015Z" style="fill:rgb(158,158,158);fill-rule:nonzero;"/>
    <path d="M185,43.115C185.8,43.315 188.3,43.715 190.5,44.115C192.7,44.515 196.5,45.815 199,47.115C201.5,48.315 205.9,51.615 208.9,54.215C211.9,56.915 215.8,61.415 217.5,64.115C219.3,66.915 221.7,71.715 222.9,74.915C224.2,78.515 225,82.915 225,86.815C225,91.315 224.4,94.015 223,96.315C221.9,98.215 218.9,100.615 216.2,102.015C213.6,103.315 209,105.015 206,105.915C203,106.815 197,107.915 192.7,108.515C188.5,109.115 178.6,109.615 170.8,109.615C162.9,109.615 151.3,109.015 145,108.215C138.7,107.415 132,106.215 130.2,105.715C127.9,104.915 127,104.015 127,102.315C127,101.115 128.2,97.615 129.6,94.615C131,91.615 133.5,86.815 135.3,84.115C137,81.315 141.2,75.515 144.6,71.115C148,66.715 153.2,60.815 156.1,58.015C159.1,55.215 164.2,51.215 167.5,49.015C170.7,46.915 175.7,44.615 178.5,43.915C181.2,43.315 184.2,42.915 185,43.115Z" style="fill:rgb(158,158,158);fill-rule:nonzero;"/>
    <path d="M53,114.715C61.5,114.715 73.7,115.215 80,116.015C86.3,116.815 93,118.115 94.9,118.815C98,120.015 98.2,120.315 97.5,123.615C97.1,125.515 95.7,129.415 94.3,132.115C92.9,134.915 89,141.115 85.6,146.115C82.3,151.015 75.9,158.715 71.5,163.215C67.1,167.615 61,172.915 58,175.015C55,177.015 50,179.315 47,180.015C42.9,181.015 40.1,181.115 36,180.415C33,179.815 28.5,178.415 26,177.115C23.5,175.915 19,172.615 16,169.915C13,167.215 9.1,162.715 7.3,160.015C5.5,157.315 3.2,152.415 2,149.115C0.8,145.515 0,140.615 0,136.915C0,132.715 0.6,129.615 1.8,127.615C2.8,125.815 5.6,123.615 8.5,122.215C11.3,120.915 15.5,119.215 18,118.515C20.5,117.815 25.9,116.715 30,116.115C34.1,115.415 44.5,114.815 53,114.715Z" style="fill:rgb(158,158,158);fill-rule:nonzero;"/>
    <path d="M112.6,128.615C113.4,128.615 115.6,130.515 117.6,132.915C119.6,135.215 123,140.315 125.3,144.115C127.6,147.915 131.1,154.915 133.1,159.615C135.1,164.315 137.8,172.215 139,177.115C140.2,182.015 141.3,189.315 141.4,193.115C141.5,199.215 141.1,200.815 138.5,205.515C136.8,208.415 134,212.215 132.3,213.715C130.5,215.315 126.9,217.715 124.3,219.015C121.6,220.315 116.8,222.115 113.5,223.015C110.2,223.915 104.4,224.615 100.5,224.615C96.7,224.615 91.3,224.015 88.5,223.215C85.8,222.515 81.5,220.915 79,219.715C76.5,218.515 73.4,215.815 72,213.915C70,210.915 69.5,209.115 69.6,204.215C69.6,200.815 70.6,195.015 71.9,191.115C73.2,187.315 76.3,179.815 78.9,174.615C81.6,169.415 85.8,161.715 88.5,157.615C91.1,153.515 95.6,146.915 98.5,143.115C101.4,139.315 105.4,134.415 107.5,132.315C109.5,130.315 111.8,128.615 112.6,128.615Z" style="fill:rgb(158,158,158);fill-rule:nonzero;"/>
</svg>
