<?xml version="1.0" encoding="UTF-8" standalone="no"?><!DOCTYPE svg PUBLIC "-//W3C//DTD SVG 1.1//EN" "http://www.w3.org/Graphics/SVG/1.1/DTD/svg11.dtd"><svg width="100%" height="100%" viewBox="0 0 10417 10417" version="1.1" xmlns="http://www.w3.org/2000/svg" xmlns:xlink="http://www.w3.org/1999/xlink" xml:space="preserve" xmlns:serif="http://www.serif.com/" style="fill-rule:evenodd;clip-rule:evenodd;stroke-linejoin:round;stroke-miterlimit:2;"><path d="M3246.72,3925.43l40.033,208.942c58.213,221.458 126.3,366.721 204.271,435.783c83.125,69.009 233.262,102.517 450.4,100.555l3179.5,-28.871c217.133,-1.963 366.841,-41.392 449.096,-118.246c87.466,-70.559 153.82,-213.875 199.045,-429.934l37.517,-209.633l241.025,102.463l11.425,1893.15l-107.883,115.137l-132.517,-112.971c-150.817,-144.496 -314.271,-244.496 -490.4,-299.979c-170.954,-55.542 -396.008,-82.033 -675.192,-79.5l-2752.97,25c-201.634,1.825 -343.596,38.004 -425.888,108.525c-77.133,70.471 -140.921,210.575 -191.354,420.329l-37.742,171.6l-225.345,-74.062l-12.796,-2121.46l239.775,-106.825Z" style="fill:#fff;fill-rule:nonzero;"/><path d="M2147.66,7293.29l110.467,697.062c26.738,165.504 72.275,283.075 136.617,352.709c64.321,69.62 173.054,103.87 326.179,102.745l5733.04,-42.379c146.77,-1.096 251.787,-36.929 315.07,-107.5c63.28,-70.575 107.084,-188.804 131.371,-354.687l90.538,-698.542l421.129,-3.108l15.016,2026.6l-7675.96,56.737l-15.016,-2026.6l411.545,-3.041l0,0.004Z" style="fill:#fff;fill-rule:nonzero;"/><path d="M8967.04,2879.86l-105.263,-699.446c-25.504,-166.075 -70.154,-284.238 -133.941,-354.513c-63.784,-70.262 -172.238,-105.383 -325.313,-105.383l-5731.29,-0c-146.7,-0 -251.962,35.121 -315.745,105.383c-63.788,70.275 -108.438,188.438 -133.942,354.513l-95.696,699.445l-420.987,0l-0,-2031.25l7673.62,0l-0,2031.25l-411.446,0Z" style="fill:#fff;fill-rule:nonzero;"/></svg>